 <svg  version="1.0" xmlns="http://www.w3.org/2000/svg"  width="300.000000pt" height="277.000000pt" viewBox="0 0 300.000000 277.000000"  preserveAspectRatio="xMidYMid meet">  <g transform="translate(0.000000,277.000000) scale(0.050000,-0.050000)" fill="#11053b" stroke="none"> <path d="M3005 5266 c41 -11 44 -28 10 -65 -20 -22 -19 -25 10 -15 49 18 44 0 -7 -27 -24 -13 -37 -14 -31 -3 7 11 -14 23 -47 28 -33 5 -60 1 -60 -8 0 -9 -25 -17 -55 -17 -30 0 -77 0 -104 0 -27 -1 -94 -24 -150 -53 -155 -80 -168 -86 -200 -86 -17 0 -25 -12 -19 -28 13 -33 -51 -59 -98 -41 -51 20 -232 -123 -233 -184 -1 -12 -13 -27 -28 -33 -38 -15 -42 -369 -5 -469 48 -133 80 -345 54 -371 -50 -50 18 -451 80 -471 38 -12 57 -44 58 -94 0 -56 124 -304 188 -379 29 -33 62 -91 74 -130 32 -101 179 -244 399 -390 106 -70 203 -140 216 -156 41 -50 104 -15 274 154 288 286 340 392 269 548 -28 63 -34 95 -19 120 53 89 115 332 97 378 -24 63 -25 56 32 118 85 92 70 411 -24 505 -19 18 -27 68 -24 150 2 68 -2 164 -8 213 -7 50 -12 101 -13 115 -1 14 -23 36 -51 49 -44 20 -50 35 -50 128 0 58 -10 112 -21 119 -12 7 -17 26 -11 42 7 16 3 24 -7 18 -9 -6 -37 20 -61 58 -30 50 -62 73 -111 83 -81 15 -97 33 -78 90 10 31 25 40 61 33 26 -5 48 -1 48 10 0 11 -26 14 -60 7 -198 -40 -187 -41 -175 4 7 29 3 38 -17 30 -16 -5 -28 -2 -28 7 0 10 -25 19 -55 20 -30 2 -39 -2 -20 -7z m-198 -362 c19 -48 25 -81 13 -74 -11 7 -20 -2 -20 -19 0 -17 -9 -31 -20 -31 -11 0 -20 -13 -20 -30 0 -16 -13 -30 -28 -30 -16 0 -33 -11 -39 -25 -6 -14 -8 0 -3 30 6 46 1 53 -36 48 -28 -4 -46 -24 -51 -51 -4 -30 -16 -41 -36 -34 -16 7 -24 3 -17 -8 7 -11 3 -20 -9 -20 -11 0 -21 14 -21 30 0 17 14 30 30 30 17 0 30 13 30 30 0 16 23 35 50 42 28 7 50 20 50 29 0 19 -45 12 -125 -19 -35 -13 -55 -14 -55 -2 0 11 13 20 29 20 16 0 44 20 62 45 22 30 36 37 43 20 5 -14 18 -20 29 -13 11 7 25 -7 31 -30 16 -64 46 -29 46 56 0 41 6 81 13 89 17 16 14 21 54 -83z m353 -63 c0 -12 9 -21 19 -21 11 0 29 -17 40 -38 17 -32 14 -37 -19 -28 -22 6 -40 1 -40 -12 0 -12 20 -23 45 -24 25 0 34 -6 20 -11 -14 -6 -65 5 -115 24 -56 22 -113 29 -153 21 -35 -7 -59 -7 -52 -1 6 7 4 38 -5 69 -13 45 -9 60 16 70 28 10 29 15 3 31 -22 14 -16 18 26 19 67 0 69 -12 10 -60 -50 -40 -37 -73 19 -50 26 10 28 17 10 24 -20 8 -19 15 6 33 17 13 33 42 35 65 3 44 135 -64 135 -111z m164 -1 c10 -70 -14 -81 -31 -15 -18 65 -16 99 5 86 9 -6 21 -38 26 -71z m-427 -300 c51 0 116 -12 144 -27 86 -45 154 -54 241 -35 107 24 127 15 153 -69 12 -38 14 -64 4 -59 -37 24 -10 -124 33 -175 51 -61 51 -63 98 -283 39 -183 28 -307 -32 -353 -38 -29 -52 -65 -57 -139 -1 -27 -4 -27 -21 0 -16 25 -19 24 -20 -6 0 -20 -9 -31 -20 -24 -11 7 -20 -6 -20 -28 0 -22 -9 -45 -20 -52 -11 -7 -21 -41 -21 -76 -1 -62 -2 -62 -21 -15 -11 27 -14 72 -8 101 8 38 0 63 -31 91 -24 21 -55 62 -70 90 -34 66 -180 136 -214 102 -17 -17 -15 -23 11 -23 22 0 34 -16 34 -45 1 -35 5 -39 19 -16 15 23 28 24 70 5 98 -45 38 -131 -76 -109 -41 7 -49 15 -30 27 15 10 17 18 6 18 -12 0 -52 -22 -89 -50 -70 -51 -148 -65 -170 -30 -16 25 -104 26 -119 1 -18 -28 -91 -17 -91 14 0 15 19 52 42 84 60 81 41 119 -30 58 -55 -48 -64 -79 -80 -287 -4 -44 -9 -87 -12 -95 -4 -14 -11 -36 -17 -66 -2 -6 -22 0 -45 12 -22 12 -36 34 -31 49 6 15 3 52 -7 83 -9 31 -17 44 -18 27 -1 -16 -35 22 -75 85 -40 63 -80 115 -89 115 -47 0 -87 584 -47 685 8 20 4 35 -9 35 -59 0 48 272 142 359 44 42 88 56 67 22 -17 -27 156 -48 244 -30 41 8 87 18 103 21 15 3 37 15 49 27 15 15 25 16 29 2 4 -12 49 -21 101 -21z m790 -682 c-36 -73 -67 -85 -67 -26 0 17 9 25 20 18 24 -15 27 35 3 61 -10 11 -9 50 2 89 l20 70 29 -69 c26 -61 25 -75 -7 -143z m-1567 -84 c0 -20 -13 -50 -30 -67 -27 -27 -30 -21 -30 48 0 43 6 84 14 92 17 18 45 -27 46 -73z m1460 -384 c0 -13 -103 -170 -112 -170 -6 0 47 135 65 165 11 17 47 21 47 5z m-480 -150 c-65 -51 -27 -51 50 0 84 56 90 52 90 -58 0 -115 -39 -164 -101 -126 -21 13 -68 20 -104 15 -36 -5 -117 -14 -181 -21 -73 -8 -121 -24 -127 -42 -12 -30 -67 -40 -67 -12 0 9 -17 35 -38 57 -53 57 -35 156 26 137 96 -30 132 -34 132 -13 0 12 -12 17 -26 12 -15 -6 -46 7 -71 28 l-44 39 135 -9 c75 -5 172 -1 216 10 140 33 169 29 110 -17z m337 -170 c-22 -22 -122 -34 -109 -13 8 13 24 18 35 11 11 -6 25 8 31 32 11 40 14 41 31 11 10 -19 16 -37 12 -41z m-267 -140 c-1 -88 -25 -141 -75 -165 -72 -35 -134 -43 -148 -20 -7 12 -4 15 9 8 11 -8 26 -5 33 5 15 24 -48 15 -66 -10 -7 -11 -24 -18 -38 -16 -14 2 -43 4 -65 6 -22 1 -40 12 -40 23 0 12 9 16 19 10 11 -7 6 13 -10 43 -24 47 -40 145 -24 147 3 0 68 5 145 12 77 6 142 14 145 16 38 34 115 -6 115 -59z m375 57 c-14 -6 -25 -44 -25 -87 0 -90 -64 -184 -301 -441 -72 -78 -125 -88 -194 -34 -37 29 -30 53 12 42 21 -6 71 8 113 31 42 22 83 36 92 31 8 -5 21 -1 28 11 18 29 -21 25 -131 -14 -168 -60 -484 54 -563 201 -18 34 -10 32 43 -13 250 -211 548 -145 818 181 48 58 97 104 110 103 15 -1 15 -4 -2 -11z m-795 -129 c11 -46 7 -52 -33 -48 -26 3 -58 6 -72 7 -14 2 -25 12 -25 24 0 14 13 14 40 -1 39 -21 55 14 41 90 -8 44 37 -22 49 -72z"/> <path d="M2255 4275 c-11 -104 -6 -111 45 -65 40 36 58 143 20 120 -11 -7 -20 -3 -20 9 0 62 -37 9 -45 -64z"/> <path d="M2800 4202 c0 -12 -1 -28 -1 -36 -1 -8 17 -21 40 -29 33 -13 41 -8 41 27 0 23 -6 37 -13 30 -7 -8 -25 -4 -40 9 -20 16 -27 16 -27 -1z"/> <path d="M3060 4020 c-60 -21 -112 -47 -116 -59 -4 -11 -24 -21 -44 -21 -54 0 -44 -104 10 -119 22 -6 41 -22 42 -36 5 -59 9 -63 53 -47 26 10 46 35 48 59 4 70 6 72 32 37 21 -28 37 -31 95 -14 38 11 101 20 140 20 38 0 83 9 98 18 39 25 -165 49 -319 38 -65 -5 -119 -3 -119 3 0 23 162 61 259 61 80 0 98 6 88 30 -6 17 -28 30 -48 30 -20 0 -42 9 -49 20 -17 27 -40 24 -170 -20z"/> <path d="M2349 3919 c-71 -74 -54 -92 66 -64 52 12 126 15 165 7 l70 -14 -90 -18 c-49 -9 -116 -19 -148 -22 -32 -3 -77 -24 -100 -48 l-42 -43 80 14 c44 8 87 25 97 37 11 16 19 15 26 -3 12 -30 107 -34 107 -5 0 11 14 20 31 20 55 0 -13 -52 -113 -87 l-88 -31 83 -1 c89 -1 207 52 207 94 0 14 9 25 20 25 34 0 22 31 -40 104 -51 59 -72 70 -135 67 -41 -2 -89 4 -107 12 -22 11 -50 -3 -89 -44z"/> <path d="M3090 2934 c-27 -33 -34 -114 -10 -114 11 0 20 16 20 35 1 27 4 29 18 8 24 -38 48 6 32 57 -14 45 -31 49 -60 14z"/> <path d="M3734 3415 c46 -72 83 -417 56 -511 -26 -86 -25 -91 3 -54 49 63 87 163 87 231 0 34 8 56 19 50 17 -11 20 -27 21 -147 0 -25 9 -41 20 -34 63 39 -50 390 -125 390 -12 0 -16 6 -9 13 20 20 -24 87 -58 87 -19 0 -25 -9 -14 -25z"/> <path d="M1933 3234 c-99 -77 -173 -157 -173 -188 0 -46 112 -146 163 -145 41 0 36 7 -32 49 -155 95 -85 148 102 76 18 -7 24 0 16 20 -7 17 5 48 26 69 99 99 8 205 -102 119z"/> <path d="M2061 2993 c5 -5 49 -28 98 -53 l89 -45 -30 45 c-19 29 -55 48 -98 53 -37 4 -63 4 -59 0z"/> <path d="M3892 2794 c-21 -64 -58 -147 -83 -183 -38 -56 -40 -66 -12 -62 18 3 60 58 93 123 61 120 163 148 199 53 6 -15 3 -22 -6 -17 -10 6 -28 -13 -41 -41 -87 -192 -370 -419 -473 -379 -16 6 -29 3 -29 -6 0 -10 -52 -28 -115 -40 -298 -58 -391 -102 -215 -102 67 0 90 8 90 30 0 55 40 31 42 -25 2 -30 6 -41 11 -24 8 31 172 99 240 99 20 1 60 18 87 40 28 22 58 39 68 40 42 1 157 109 229 216 72 105 183 167 183 102 0 -10 7 -17 15 -16 44 7 66 -4 52 -27 -10 -17 -4 -17 19 2 49 40 100 14 84 -42 -9 -31 -7 -37 6 -18 13 19 23 21 33 5 13 -21 -57 -61 -96 -55 -9 2 -30 -22 -46 -53 -16 -30 -36 -51 -44 -46 -8 5 -16 -8 -18 -29 -4 -59 23 -47 94 40 52 63 82 82 153 92 48 8 84 19 80 26 -24 38 181 2 213 -38 19 -24 35 -33 35 -21 0 35 76 26 97 -12 13 -23 10 -42 -9 -61 -15 -15 -28 -38 -27 -51 0 -13 11 -6 23 16 20 34 28 22 58 -100 28 -110 38 -130 49 -95 7 25 27 45 43 45 17 0 23 10 13 25 -9 16 -2 15 20 -3 24 -20 28 -33 12 -42 -15 -10 -12 -18 9 -27 18 -6 32 -28 32 -47 0 -20 13 -61 29 -92 17 -31 20 -49 7 -42 -14 9 -17 5 -7 -10 8 -14 28 -20 43 -14 20 8 28 -6 28 -50 0 -35 8 -55 20 -48 30 19 25 -31 -28 -286 -6 -25 -28 -69 -51 -97 -23 -29 -41 -64 -41 -77 0 -14 -13 -36 -30 -50 -16 -14 -30 -42 -30 -64 0 -21 -23 -90 -52 -152 -67 -146 -89 -204 -78 -204 8 0 54 93 239 487 41 86 79 188 85 226 26 161 94 49 82 -136 -6 -83 -1 -110 17 -103 13 5 19 24 12 41 -8 21 -4 27 12 17 12 -8 23 -30 23 -48 0 -19 13 -59 29 -90 16 -30 22 -51 13 -46 -8 6 -15 -2 -15 -18 0 -16 6 -25 13 -20 21 13 87 -230 83 -310 -8 -204 -248 -466 -563 -614 -108 -50 -213 -126 -175 -126 139 0 558 302 722 520 64 86 84 102 90 73 12 -62 -57 -186 -139 -252 -43 -34 -88 -82 -101 -107 -22 -42 -21 -42 15 -11 83 71 163 98 242 80 75 -17 75 -17 26 -38 -151 -63 -154 -66 -62 -53 63 9 83 6 73 -11 -8 -12 0 -44 17 -71 l32 -48 -175 4 c-161 4 -186 -1 -310 -62 -136 -65 -255 -101 -255 -76 0 8 38 31 85 52 69 31 77 40 48 52 -21 8 -43 6 -50 -5 -20 -28 -221 -167 -242 -167 -46 0 -81 68 -81 158 0 52 -13 112 -29 133 -53 69 -38 210 36 351 64 120 74 178 31 178 -10 0 -18 -14 -18 -31 0 -50 -80 -191 -101 -179 -25 16 -24 77 1 102 20 20 64 99 143 253 21 41 43 75 48 75 6 0 0 -20 -13 -45 -18 -35 -17 -40 1 -23 13 13 26 35 29 50 3 16 16 53 29 84 13 31 23 67 24 80 0 13 13 41 29 62 16 21 23 47 16 58 -7 11 -2 14 10 7 11 -8 27 -5 34 7 7 11 3 20 -9 20 -11 0 -21 14 -21 31 0 18 10 25 22 18 15 -9 18 0 9 27 -7 23 0 67 15 98 16 31 34 87 41 125 8 37 28 85 46 105 19 20 27 43 19 51 -23 23 -54 -44 -159 -355 -55 -159 -125 -329 -158 -376 -32 -48 -80 -138 -106 -200 -46 -112 -47 -113 -48 -43 -2 178 85 376 153 350 16 -6 26 5 26 27 0 44 -58 72 -87 43 -39 -39 -50 -21 -30 54 29 114 61 191 93 229 21 25 31 104 36 290 4 141 12 297 17 346 7 63 -5 37 -40 -90 -28 -99 -59 -196 -71 -216 -11 -20 -24 -110 -30 -200 -12 -212 -64 -601 -92 -704 -13 -44 -25 -179 -28 -300 -3 -121 -10 -296 -17 -390 l-11 -170 34 105 c56 170 92 117 103 -150 l3 -85 129 0 c71 0 133 7 139 16 5 9 -18 13 -52 8 -43 -7 -59 -2 -53 16 5 14 35 28 68 30 123 11 320 58 345 84 26 25 103 33 284 29 141 -4 170 -13 170 -55 0 -34 -14 -37 -130 -33 -138 5 -140 8 36 -67 163 -70 200 -5 114 204 -14 34 -25 106 -26 160 0 54 -19 154 -42 222 -23 69 -42 168 -42 220 -1 114 -20 185 -176 646 -206 608 -466 1050 -644 1094 -27 7 -89 29 -137 49 -47 20 -110 41 -140 47 -29 5 -94 17 -143 26 -50 9 -120 16 -155 14 -61 -3 -73 9 -67 62 3 28 -35 61 -123 105 l-66 34 -37 -117z"/> <path d="M1900 2787 c-16 -5 -48 -18 -70 -27 -67 -30 -519 -167 -535 -164 -8 2 -15 -10 -15 -26 0 -17 -12 -30 -26 -30 -120 0 -582 -686 -524 -780 6 -9 2 -20 -7 -23 -18 -7 -141 -355 -184 -517 -13 -49 -39 -112 -58 -140 -41 -59 -85 -180 -65 -180 8 0 4 -7 -8 -15 -57 -39 -83 -246 -50 -395 8 -33 6 -95 -3 -138 -9 -42 -11 -82 -5 -88 22 -22 53 33 59 104 7 96 15 101 79 50 30 -23 59 -37 66 -31 17 17 -33 71 -95 104 -46 23 -96 119 -74 141 4 3 38 -20 75 -52 119 -102 525 -300 614 -300 93 0 260 -143 196 -167 -19 -7 -42 -8 -53 -1 -11 7 -31 -4 -46 -24 -23 -32 -36 -33 -106 -12 -121 36 -126 27 -16 -27 155 -77 255 -15 313 191 42 152 58 136 59 -61 2 -186 2 -188 26 -98 14 49 40 112 59 139 57 82 41 227 -20 177 -45 -38 -50 -6 -9 65 21 38 44 118 52 178 7 61 22 142 34 180 17 58 13 92 -23 190 -78 215 -100 318 -100 480 -1 143 -15 233 -105 655 -13 63 -33 112 -43 109 -29 -10 -29 -55 1 -194 30 -137 37 -187 59 -407 9 -89 20 -127 31 -110 12 18 15 6 11 -33 -4 -33 10 -126 30 -207 48 -188 39 -243 -21 -127 -48 93 -125 360 -175 614 -56 280 -63 297 -68 150 -7 -238 1 -308 44 -358 33 -39 77 -166 115 -332 24 -104 128 -337 174 -391 22 -27 22 -38 -1 -70 -26 -35 -30 -31 -57 60 -15 54 -34 88 -42 76 -7 -12 5 -78 27 -148 44 -141 50 -240 19 -298 -25 -48 -63 -52 -45 -6 10 27 5 31 -26 20 -37 -13 -37 -12 1 17 38 30 38 30 0 31 -38 0 -38 1 -2 28 74 56 -137 434 -284 509 -40 21 -98 61 -129 90 -72 67 -99 67 -73 -1 11 -30 16 -66 10 -80 -5 -15 -1 -27 10 -27 10 0 19 15 19 32 0 30 4 30 45 1 25 -18 72 -45 105 -60 108 -48 161 -149 89 -168 -22 -5 -39 -17 -39 -26 0 -26 43 -46 57 -27 77 106 209 -158 133 -266 -24 -34 -22 -47 11 -98 45 -68 48 -101 14 -174 -33 -71 -60 -68 -140 15 -61 63 -78 69 -176 69 -157 -2 -460 151 -519 262 -47 88 -84 244 -62 266 21 21 30 8 49 -76 6 -30 9 -27 11 14 1 29 11 78 22 107 15 40 14 62 -5 85 -18 23 -18 28 -1 17 16 -9 29 3 38 36 7 28 22 45 33 38 12 -7 15 -4 8 8 -7 12 -3 47 10 78 13 31 21 69 19 83 -2 15 7 41 21 58 15 17 28 62 31 100 5 86 48 186 80 186 13 0 29 9 36 20 7 11 -3 15 -24 8 -34 -11 -34 -10 -1 17 19 16 29 34 22 41 -6 7 -5 28 3 48 15 34 26 83 34 141 1 14 12 25 24 25 12 0 23 22 25 49 3 55 54 117 78 95 8 -8 9 -3 2 9 -27 48 113 238 155 212 10 -6 12 -1 4 12 -8 13 0 37 17 55 17 17 31 23 32 14 0 -9 11 4 25 28 13 24 33 42 44 40 11 -2 23 18 27 44 4 33 12 40 22 23 12 -19 26 -20 57 -3 30 16 43 16 48 -1 5 -14 19 -11 40 10 40 39 78 42 115 8 22 -20 25 -18 14 11 -7 22 -5 31 7 24 11 -7 26 2 33 19 10 29 14 29 37 -2 23 -32 26 -31 39 11 11 32 26 43 53 36 23 -6 46 3 57 23 11 18 20 22 20 9 1 -14 15 -20 31 -13 17 6 46 0 65 -15 30 -22 31 -22 10 2 -34 38 -32 67 4 53 15 -6 38 2 51 17 19 22 9 30 -54 42 l-76 15 100 24 c56 14 78 25 50 25 -27 0 -63 -4 -80 -9z"/> <path d="M2060 2710 c0 -9 23 -46 50 -82 28 -36 50 -77 50 -92 1 -22 255 -166 296 -166 29 -1 156 -58 194 -88 30 -24 29 -19 -6 21 -27 30 -110 76 -197 107 -164 60 -243 117 -330 237 -31 44 -57 72 -57 63z"/> <path d="M1420 2353 c0 -26 6 -53 14 -60 7 -8 16 -34 20 -59 3 -24 16 -89 27 -144 61 -279 86 -368 101 -359 9 6 13 -7 9 -28 -5 -21 1 -73 11 -116 11 -42 23 -93 27 -112 5 -19 14 -43 20 -53 6 -10 0 -24 -14 -31 -14 -6 -7 -8 16 -4 26 5 42 -4 45 -25 7 -61 16 -92 39 -134 13 -24 17 -50 9 -59 -8 -8 -3 -9 11 -1 14 8 20 24 13 36 -7 11 -1 28 14 38 22 14 21 17 -7 18 -28 0 -31 9 -15 51 15 38 14 48 -3 37 -16 -10 -20 -4 -12 17 7 18 5 35 -4 39 -9 3 -21 49 -28 101 -6 53 -16 103 -21 112 -6 10 -16 66 -22 125 -26 267 -56 383 -114 447 -20 21 -36 50 -36 64 0 42 -44 124 -73 135 -18 7 -27 -5 -27 -35z"/> <path d="M1780 2292 c0 -27 -9 -55 -19 -62 -21 -13 15 -110 40 -110 18 0 14 40 -6 73 -8 13 -2 28 14 34 17 6 24 27 17 52 -16 62 -46 71 -46 13z"/> <path d="M1952 2304 c-15 -25 -2 -106 31 -183 39 -92 55 -43 32 94 -17 98 -38 128 -63 89z"/> <path d="M2494 2275 c15 -20 50 -118 76 -215 11 -41 60 -120 73 -120 9 0 16 -7 14 -15 -7 -31 28 -85 55 -85 54 0 32 130 -40 243 -94 146 -151 217 -176 217 -13 0 -14 -9 -2 -25z"/> <path d="M2792 2285 c-6 -6 7 -21 31 -33 31 -17 43 -43 46 -107 4 -91 -8 -103 -58 -54 -28 29 -31 24 -28 -55 1 -47 6 -65 11 -40 8 43 16 45 103 32 109 -15 118 -21 87 -52 -13 -13 -24 -67 -24 -119 0 -52 -9 -100 -20 -107 -11 -7 -20 -30 -20 -51 0 -22 -10 -39 -22 -39 -13 0 -18 -17 -13 -37 5 -21 1 -53 -10 -73 -14 -25 -14 -32 2 -22 13 8 23 5 23 -7 0 -11 -7 -21 -17 -21 -9 0 -18 -50 -21 -112 -3 -80 2 -108 19 -97 17 10 17 3 0 -29 -26 -49 -21 -124 9 -147 12 -9 10 -15 -5 -15 -15 0 -25 -27 -25 -69 0 -38 -10 -75 -21 -82 -12 -7 -17 -26 -11 -41 6 -15 2 -28 -8 -28 -10 0 -31 -43 -47 -95 -16 -52 -35 -109 -42 -126 -9 -24 2 -30 52 -30 58 1 68 11 105 101 22 55 53 110 69 122 24 18 24 24 -6 35 -25 9 -31 28 -24 68 6 30 17 177 23 325 7 149 22 324 33 390 12 66 22 152 24 190 2 39 24 99 49 135 l47 65 -72 0 c-39 0 -71 9 -71 20 0 11 -13 20 -28 20 -47 0 -52 55 -7 85 33 22 36 32 16 45 -19 11 -22 9 -11 -10 10 -17 6 -22 -12 -15 -15 5 -26 19 -24 30 5 23 -85 68 -102 50z"/> <path d="M3597 2185 c-1 -8 -4 -33 -7 -55 -3 -22 -52 -132 -109 -245 -123 -240 -157 -386 -163 -680 -2 -118 -10 -269 -18 -335 -8 -66 -9 -129 -1 -140 26 -40 24 -216 -3 -234 -17 -11 -5 -16 34 -12 60 6 60 6 55 125 -3 76 4 124 19 134 18 11 16 24 -10 52 -40 44 -43 181 -15 550 18 234 78 415 253 762 28 56 23 93 -13 93 -11 0 -20 -7 -22 -15z"/> <path d="M2337 2175 c-1 -3 -5 -27 -9 -55 -4 -27 -13 -81 -20 -118 -9 -48 -7 -64 9 -54 23 14 30 -8 24 -71 -1 -17 12 -38 29 -44 22 -9 27 -5 16 12 -16 25 -23 85 -29 250 -2 73 -9 100 -20 80z"/> <path d="M1835 2124 c-12 -47 20 -130 44 -115 12 8 13 30 2 60 -10 26 -14 51 -8 57 5 5 1 15 -9 22 -11 6 -24 -4 -29 -24z"/> <path d="M4890 2040 c-7 -22 -8 -47 -2 -57 6 -9 1 -70 -11 -135 -40 -223 -50 -306 -33 -296 9 6 16 26 16 44 1 19 32 95 69 169 38 74 64 135 57 135 -6 0 -1 12 10 26 12 14 14 37 6 51 -11 18 -27 1 -49 -55 -45 -112 -54 -103 -43 38 9 123 2 151 -20 80z"/> <path d="M3332 2009 c-6 -18 -11 -70 -10 -116 3 -82 3 -82 21 25 18 108 13 152 -11 91z"/> <path d="M3183 1907 c-14 -16 -22 -42 -15 -58 6 -16 1 -26 -12 -24 -12 3 -22 -25 -22 -65 -1 -48 8 -70 27 -70 16 0 29 14 29 30 0 17 7 35 16 42 9 7 14 48 10 93 -5 69 -10 76 -33 52z"/> <path d="M2802 1858 c-1 -29 -8 -83 -15 -120 -7 -40 -5 -61 5 -51 10 9 18 22 19 30 0 7 12 34 27 61 16 28 19 52 7 60 -10 6 -24 26 -30 42 -7 18 -12 9 -13 -22z"/> <path d="M4332 1849 c-11 -30 25 -109 51 -109 17 0 11 42 -12 78 -13 21 -10 24 11 11 24 -14 24 -12 1 17 -34 42 -36 42 -51 3z"/> <path d="M980 1791 c0 -16 9 -34 20 -41 12 -7 16 -20 10 -29 -5 -9 4 -22 20 -28 38 -15 37 -5 -1 68 -33 65 -49 75 -49 30z"/> <path d="M3980 1509 c-196 -63 -249 -64 -233 -4 11 45 11 45 -29 -3 -104 -126 0 -144 245 -43 286 118 294 141 17 50z"/> <path d="M2698 1368 c-10 -114 -5 -187 11 -182 11 4 17 47 14 95 -6 81 -21 133 -25 87z"/> <path d="M4390 1325 c29 -22 31 -92 4 -109 -16 -10 -12 -15 11 -16 27 0 35 17 35 70 0 53 -8 70 -35 70 -20 0 -26 -7 -15 -15z"/> <path d="M4876 594 c-17 -18 -37 -27 -44 -20 -6 7 -12 3 -12 -9 0 -13 7 -27 15 -32 24 -15 90 42 81 68 -5 17 -17 15 -40 -7z"/> <path d="M606 269 l-56 -51 86 13 c48 7 96 4 110 -7 13 -11 85 -27 159 -34 113 -12 214 -50 133 -50 -14 0 -20 -5 -14 -10 5 -6 31 -3 56 6 50 19 -73 84 -157 84 -21 0 -79 23 -131 50 -116 62 -117 62 -186 -1z"/> <path d="M374 160 c-97 -18 -122 -44 -106 -109 17 -67 46 -65 88 9 34 59 36 60 214 62 160 2 171 5 100 22 -110 27 -206 32 -296 16z"/> <path d="M5110 20 c22 -9 81 -17 130 -17 68 0 80 4 50 17 -22 9 -80 17 -130 17 -68 0 -80 -4 -50 -17z"/> <path d="M756 5 c47 -4 119 -4 160 0 40 5 2 8 -86 8 -88 0 -122 -3 -74 -8z"/> </g> </svg> 